<?xml version="1.0" encoding="utf-8"?>
<!-- Generator: Adobe Illustrator 18.0.0, SVG Export Plug-In . SVG Version: 6.00 Build 0)  -->
<!DOCTYPE svg PUBLIC "-//W3C//DTD SVG 1.1//EN" "http://www.w3.org/Graphics/SVG/1.1/DTD/svg11.dtd">
<svg version="1.1" id="Layer_1" xmlns="http://www.w3.org/2000/svg" xmlns:xlink="http://www.w3.org/1999/xlink" x="0px" y="0px"
	 viewBox="0 0 256 256" enable-background="new 0 0 256 256" xml:space="preserve">
<g>
	<circle fill="#26A3D4" cx="128" cy="128" r="127"/>
	<path fill="#BBC2C6" d="M182.2,196.6h-17.9V89.1h28.4v97C192.7,191.9,188,196.6,182.2,196.6z"/>
	<path fill="#EDF0F2" d="M173,187.8V59.4H63.3v125.9c0,6.2,5,11.2,11.2,11.2h107.2C176.9,196.6,173,192.6,173,187.8z"/>
	<line fill="none" stroke="#BBC2C6" stroke-miterlimit="10" x1="74.7" y1="72.4" x2="158.9" y2="72.4"/>
	<line fill="none" stroke="#BBC2C6" stroke-miterlimit="10" x1="74.7" y1="78.5" x2="158.9" y2="78.5"/>
	<rect x="74.7" y="85.2" fill="#E15D4A" width="84.2" height="22.3"/>
	<g>
		<polygon fill="#BBC2C6" points="115.5,137.7 75,137.7 75,118.5 75.8,118.5 75.8,136.9 115.5,136.9 		"/>
		<rect x="77.8" y="119.7" fill="#BBC2C6" width="2.4" height="17.6"/>
		<rect x="82.5" y="119.7" fill="#BBC2C6" width="2.4" height="17.6"/>
		<rect x="87.2" y="119.7" fill="#BBC2C6" width="2.4" height="17.6"/>
		<rect x="91.9" y="119.7" fill="#BBC2C6" width="2.4" height="17.6"/>
		<rect x="96.6" y="119.7" fill="#BBC2C6" width="2.4" height="17.6"/>
		<rect x="101.3" y="119.7" fill="#BBC2C6" width="2.4" height="17.6"/>
		<rect x="106" y="119.7" fill="#BBC2C6" width="2.4" height="17.6"/>
		<rect x="110.6" y="119.7" fill="#BBC2C6" width="2.4" height="17.6"/>
		<rect x="77.8" y="132.9" fill="#39B39B" width="2.4" height="4.4"/>
		<rect x="82.5" y="125.1" fill="#39B39B" width="2.4" height="12.2"/>
		<rect x="87.2" y="127.9" fill="#39B39B" width="2.4" height="9.4"/>
		<rect x="91.9" y="135.6" fill="#39B39B" width="2.4" height="1.7"/>
		<rect x="96.6" y="130" fill="#39B39B" width="2.4" height="7.2"/>
		<rect x="101.3" y="127.9" fill="#39B39B" width="2.4" height="9.4"/>
		<rect x="106" y="121.1" fill="#39B39B" width="2.4" height="16.2"/>
		<rect x="110.6" y="122.9" fill="#39B39B" width="2.4" height="14.4"/>
	</g>
	<rect x="124" y="116.9" fill="#BBC2C6" width="34.9" height="1.4"/>
	<rect x="124" y="123.7" fill="#BBC2C6" width="34.9" height="1.4"/>
	<rect x="124" y="130.5" fill="#BBC2C6" width="34.9" height="1.4"/>
	<rect x="124" y="137.3" fill="#BBC2C6" width="34.9" height="1.4"/>
	<rect x="124" y="144.1" fill="#BBC2C6" width="34.9" height="1.4"/>
	<rect x="124" y="150.9" fill="#BBC2C6" width="34.9" height="1.4"/>
	<rect x="124" y="157.7" fill="#BBC2C6" width="34.9" height="1.4"/>
	<rect x="124" y="164.4" fill="#BBC2C6" width="34.9" height="1.4"/>
	<rect x="124" y="171.2" fill="#BBC2C6" width="34.9" height="1.4"/>
	<rect x="124" y="178" fill="#BBC2C6" width="34.9" height="1.4"/>
	<rect x="125.4" y="184.8" fill="#BBC2C6" width="34.9" height="1.4"/>
	<rect x="74.7" y="144.1" fill="#BBC2C6" width="39.2" height="1.4"/>
	<rect x="74.7" y="150.9" fill="#BBC2C6" width="39.2" height="1.4"/>
	<rect x="74.7" y="157.7" fill="#BBC2C6" width="39.2" height="1.4"/>
	<rect x="74.7" y="164.4" fill="#BBC2C6" width="39.2" height="1.4"/>
	<rect x="74.7" y="171.2" fill="#BBC2C6" width="39.2" height="1.4"/>
	<rect x="74.7" y="178" fill="#BBC2C6" width="39.2" height="1.4"/>
	<rect x="76.3" y="184.8" fill="#BBC2C6" width="39.2" height="1.4"/>
</g>
</svg>
